<?xml version="1.0" encoding="UTF-8" standalone="no"?>
<!-- Created with Inkscape (http://www.inkscape.org/) -->

<svg
   xmlns:dc="http://purl.org/dc/elements/1.1/"
   xmlns:cc="http://creativecommons.org/ns#"
   xmlns:rdf="http://www.w3.org/1999/02/22-rdf-syntax-ns#"
   xmlns:svg="http://www.w3.org/2000/svg"
   xmlns="http://www.w3.org/2000/svg"
   xmlns:sodipodi="http://sodipodi.sourceforge.net/DTD/sodipodi-0.dtd"
   xmlns:inkscape="http://www.inkscape.org/namespaces/inkscape"
   width="16"
   height="16"
   viewBox="0 0 16 16"
   version="1.1"
   id="svg1908"
   inkscape:version="0.92.3 (2405546, 2018-03-11)"
   sodipodi:docname="all_icons.svg">
  <defs
     id="defs1902" />
  <sodipodi:namedview
     id="base"
     pagecolor="#ffffff"
     bordercolor="#666666"
     borderopacity="1.0"
     inkscape:pageopacity="0.0"
     inkscape:pageshadow="2"
     inkscape:zoom="14.039564"
     inkscape:cx="-4.6210938"
     inkscape:cy="16.730933"
     inkscape:document-units="px"
     inkscape:current-layer="layer1"
     showgrid="false"
     inkscape:window-width="1920"
     inkscape:window-height="994"
     inkscape:window-x="0"
     inkscape:window-y="25"
     inkscape:window-maximized="1"
     units="px" />
  <metadata
     id="metadata1905">
    <rdf:RDF>
      <cc:Work
         rdf:about="">
        <dc:format>image/svg+xml</dc:format>
        <dc:type
           rdf:resource="http://purl.org/dc/dcmitype/StillImage" />
        <dc:title />
      </cc:Work>
    </rdf:RDF>
  </metadata>
  <g
     inkscape:label="Layer 1"
     inkscape:groupmode="layer"
     id="layer1"
     transform="translate(0,-869.33334)">
    <g
       style="font-style:normal;font-weight:normal;font-size:960.21435547px;line-height:125%;font-family:Sans;letter-spacing:0px;word-spacing:0px;fill:#000000;fill-opacity:1;stroke:none"
       id="text4679"
       transform="matrix(0.01819009,0,0,0.01819009,-100.95537,853.93376)">
      <path
         d="m 270.9375,250 190.875,500 h 76.71875 L 729.0625,250 H 658.75 L 613.21875,378.28125 H 387.8125 L 342.28125,250 Z M 408.25,434.53125 H 592.09375 L 500,683.34375 Z"
         transform="matrix(1.2,0,0,1.2,-145.81249,-49.999998)"
         id="path4687"
         inkscape:connector-curvature="0" />
    </g>
    <g
       style="font-style:normal;font-weight:normal;font-size:960.21435547px;line-height:125%;font-family:Sans;letter-spacing:0px;word-spacing:0px;fill:#000000;fill-opacity:1;stroke:none"
       id="text4679-3"
       transform="matrix(1.0914052,0,0,1.0914052,-1804.274,-492.08239)">
      <path
         d="m 270.9375,250 190.875,500 h 76.71875 L 729.0625,250 H 658.75 L 613.21875,378.28125 H 387.8125 L 342.28125,250 Z M 408.25,434.53125 H 592.09375 L 500,683.34375 Z"
         transform="matrix(1.2,0,0,1.2,-145.81249,-49.999998)"
         id="path4687-6"
         inkscape:connector-curvature="0" />
    </g>
    <g
       id="g28"
       transform="matrix(0.07402707,0,0,0.07402707,-28.989106,843.05511)"
       style="fill:#000000">
      <path
         inkscape:connector-curvature="0"
         class="st0"
         d="m 580.49,391.2 v 87.81 c 0,19.97 -10.76,38.53 -28.09,48.46 l -52.73,30.14 -52.73,-30.14 c -17.33,-9.93 -28.09,-28.49 -28.09,-48.46 V 391.2 l 4.1,-2.33 c 23.33,-13.33 49.86,-20.38 76.73,-20.38 26.87,0 53.41,7.05 76.73,20.38 z"
         id="path24"
         style="fill:#000000" />
    </g>
  </g>
</svg>
