<?xml version="1.0" encoding="utf-8"?>
<!-- Generator: Adobe Illustrator 23.1.1, SVG Export Plug-In . SVG Version: 6.00 Build 0)  -->
<svg version="1.1" id="Calque_1" xmlns="http://www.w3.org/2000/svg" xmlns:xlink="http://www.w3.org/1999/xlink" x="0px" y="0px"
	 viewBox="0 0 28 28" style="enable-background:new 0 0 28 28;" xml:space="preserve">
<style type="text/css">
	.st0{fill:#FFFFFF;}
</style>
<g>
	<polygon class="st0" points="6.82,10.21 10.41,12.26 10.41,16.36 6.82,14.31 	"/>
	<path class="st0" d="M25.36,3.02C21.91,1.04,17.98,0,14,0S6.09,1.04,2.64,3.02L2.03,3.36v13c0,2.96,1.59,5.7,4.16,7.17L14,28
		l7.81-4.46c2.57-1.47,4.16-4.22,4.16-7.17v-13L25.36,3.02z M24.76,8.2l-3.59,2.05v12.26l0,0l-3.59,2.05v-12.3L14,14.31v12.3
		l-3.59-2.05v-4.1l-3.59-2.05v4.1L6.8,22.5c-2.2-1.26-3.56-3.6-3.56-6.14V4.06L14,10.21l10.77-6.15V8.2z"/>
</g>
</svg>
